# xmcd CD database file
#
# Track frame offsets:
#	150
#	21607
#	41985
#	67087
#	91857
#	116312
#	140272
#	162617
#	193627
#	210930
#	235177
#	255510
#	277400
#	301382
#
# Disc length: 4313 seconds
#
# Revision: 1
# Processed by: cddbd v1.5.1PL0 Copyright (c) Steve Scherf et al.
# Submitted via: CDex 1.51
#
DISCID=ce10d70e
DTITLE=チューリップ - 33 Station  (Tulip Best 1972-1984)
DYEAR=1990
DGENRE=Folk
TTITLE0=約束
TTITLE1=虹とスニーカーの頃
TTITLE2=Someday Somewhere
TTITLE3=I am the Editor
TTITLE4=さよなら道化者
TTITLE5=Shooting Star
TTITLE6=ふたりがつくった風景
TTITLE7=The 10th Odyssey
TTITLE8=We Can Fly
TTITLE9=美しい星 2222年ピクニック
TTITLE10=星空の伝言
TTITLE11=夏の夜の海
TTITLE12=たったひとりのオーディエンス
TTITLE13=愛の迷路
EXTD=YEAR: 1990
EXTT0=
EXTT1=
EXTT2=
EXTT3=
EXTT4=
EXTT5=
EXTT6=
EXTT7=
EXTT8=
EXTT9=
EXTT10=
EXTT11=
EXTT12=
EXTT13=
PLAYORDER=
